<svg xmlns="http://www.w3.org/2000/svg" viewBox="0 0 27.9 20.28">
  <path d="M109.73,203.55" transform="translate(-160.43 -183.95)"/>
  <path d="M188,186c-.14.28-.49.86-.59,1-.35.49-.71,1-1.05,1.46a32.7,32.7,0,0,1-7.47,7.92A23.11,23.11,0,0,1,166.65,201a4.56,4.56,0,0,0-.62.19l1.56,1.11c.5.35.85.77.51,1.4a1.09,1.09,0,0,1-1.61.26c-1.84-1.17-3.67-2.36-5.44-3.62-.89-.64-.8-1.42.12-2.11,1.74-1.3,3.5-2.58,5.26-3.85.7-.52,1.37-.51,1.76,0s.3,1.1-.38,1.73-1.47,1.23-2.21,1.85l-1,.84a8.44,8.44,0,0,0,3.33,0,23.94,23.94,0,0,0,13.66-8c1.43-1.62,2.64-3.45,3.93-5.21.19-.26.54-.83.75-1.19a.9.9,0,0,1,.51-.43,1.15,1.15,0,0,1,1.19.22C188.71,184.91,188.07,185.65,188,186Z" transform="translate(-160.43 -183.95)" style="fill: #21805c"/>
</svg>
