<svg xmlns="http://www.w3.org/2000/svg" viewBox="0 0 526.6 478.18">
  <path d="M1048.41,767.09c-.81-.32-1.09-.38-1.09-.44q0-3.84.08-7.67c.86.2,2.18.13,2.52.67C1051.73,762.5,1050.85,764.93,1048.41,767.09Z" transform="translate(-619.11 -288.91)" style="fill: #fff"/>
  <g>
    <path d="M775.17,355.82c-.33-.21-.65-.43-1-.63h0Z" transform="translate(-619.11 -288.91)" style="fill: #f02324"/>
    <path d="M775.17,355.82a100.17,100.17,0,0,1,8.15,5.84A68.9,68.9,0,0,0,775.17,355.82Z" transform="translate(-619.11 -288.91)" style="fill: #f02324"/>
    <path d="M762,354c1.39.69,2.75,1.4,4.11,2.14a2.54,2.54,0,0,1,1.15-4.06l1-.33-.48-.26c-1,.68-1.91,1.39-2.83,2.13-.17-1.29-.33-2.57-.5-3.86,1.12.56,2.23,1.14,3.33,1.73A44.82,44.82,0,0,1,778.1,346c2.95-1.09,1.67-5.84-1.3-4.74a54.94,54.94,0,0,0-15.31,8.92A2.46,2.46,0,0,0,762,354Z" transform="translate(-619.11 -288.91)" style="fill: #f02324"/>
    <path d="M768.56,356.81a57.09,57.09,0,0,1,5.59-1.61q-2.46-1.49-5-2.88C769,353.82,768.75,355.31,768.56,356.81Z" transform="translate(-619.11 -288.91)" style="fill: #f02324"/>
    <path d="M766.1,356.13q3.67,2,7.19,4.27a57.63,57.63,0,0,1,6.56,4.73l3.47-3.47a100.17,100.17,0,0,0-8.15-5.84l-1-.62a57.09,57.09,0,0,0-5.59,1.61c.19-1.5.39-3,.58-4.49q2.55,1.4,5,2.88h0q-2.9-1.81-5.91-3.45l-1,.33A2.54,2.54,0,0,0,766.1,356.13Z" transform="translate(-619.11 -288.91)" style="fill: #f02324"/>
    <path d="M804.71,357.51c11,4.76,19.9,13.48,27.31,22.72,2,2.47,5.43-1,3.47-3.47-8-10-17.63-18.88-29.55-24-12.1-5.23-25.28-5-37.66-1q3,1.63,5.91,3.45A47.72,47.72,0,0,1,804.71,357.51Z" transform="translate(-619.11 -288.91)" style="fill: #f02324"/>
    <path d="M783.32,361.66l-3.47,3.47C782.28,367.07,785.76,363.73,783.32,361.66Z" transform="translate(-619.11 -288.91)" style="fill: #f02324"/>
    <path d="M766.66,356.56c2.25,1.24,4.47,2.49,6.63,3.84q-3.51-2.28-7.19-4.27A2.25,2.25,0,0,0,766.66,356.56Z" transform="translate(-619.11 -288.91)" style="fill: #f02324"/>
    <path d="M765,353.61c.92-.74,1.86-1.45,2.83-2.13-1.1-.59-2.21-1.17-3.33-1.73C764.64,351,764.8,352.32,765,353.61Z" transform="translate(-619.11 -288.91)" style="fill: #f02324"/>
    <path d="M779.85,365.13a57.63,57.63,0,0,0-6.56-4.73C775.54,361.88,777.73,363.44,779.85,365.13Z" transform="translate(-619.11 -288.91)" style="fill: #f02324"/>
    <path d="M719.79,392.16c-2.29-1.48-4.55-3-6.85-4.44l-.28.07C715.05,389.23,717.42,390.69,719.79,392.16Z" transform="translate(-619.11 -288.91)" style="fill: #f02324"/>
    <path d="M719.79,392.16a692.59,692.59,0,0,1,57,40.82A474.4,474.4,0,0,0,719.79,392.16Z" transform="translate(-619.11 -288.91)" style="fill: #f02324"/>
    <path d="M627.66,379.36q14.52,7.23,28.7,15c-8.63-8.76-3.85-24.3,8.07-28.38,2.39-.81,4.8-1.53,7.2-2.31l-3.37-1.83q-10.14,7.14-19.8,14.88-1.74-13.49-3.47-27c7.85,3.91,15.59,8,23.27,12.09,22.34-15.76,46.4-29.16,72-38.63,20.59-7.6,11.69-40.8-9.13-33.11-39.31,14.51-74.38,36.18-107,62.34C615.8,359.12,618.41,374.77,627.66,379.36Z" transform="translate(-619.11 -288.91)" style="fill: #f02324"/>
    <path d="M673.56,399.06c13-4.44,26-8.16,39.1-11.27-11.47-6.93-23.15-13.58-35-20.12Q675.61,383.36,673.56,399.06Z" transform="translate(-619.11 -288.91)" style="fill: #f02324"/>
    <path d="M656.36,394.32c17.17,9.32,34,19.23,50.29,29.89a399.13,399.13,0,0,1,45.87,33.05Q764.67,445.13,776.8,433a692.59,692.59,0,0,0-57-40.82c-2.37-1.47-4.74-2.93-7.13-4.37-13.08,3.11-26.12,6.83-39.1,11.27q2-15.71,4.1-31.39c11.85,6.54,23.53,13.19,35,20.12l.28-.07c-13.48-8.47-27.27-16.45-41.31-24.09-2.4.78-4.81,1.5-7.2,2.31C652.51,370,647.73,385.56,656.36,394.32Z" transform="translate(-619.11 -288.91)" style="fill: #f02324"/>
    <path d="M926.35,404c77.15,33.3,139.19,94.24,191,158.88,13.85,17.28,38-7.18,24.28-24.28-56.2-70.11-123.33-132-206.63-168-84.66-36.54-176.79-35-263.38-6.95,14,7.64,27.83,15.62,41.31,24.09C784.4,370.74,856.84,374,926.35,404Z" transform="translate(-619.11 -288.91)" style="fill: #f02324"/>
    <path d="M776.8,433q-12.13,12.15-24.28,24.28C769.51,470.81,793.89,447.44,776.8,433Z" transform="translate(-619.11 -288.91)" style="fill: #f02324"/>
    <path d="M660.33,397.32c15.72,8.67,31.25,17.43,46.32,26.89-16.33-10.66-33.12-20.57-50.29-29.89A17.31,17.31,0,0,0,660.33,397.32Z" transform="translate(-619.11 -288.91)" style="fill: #f02324"/>
    <path d="M648.46,376.68q9.64-7.74,19.8-14.88c-7.68-4.13-15.42-8.18-23.27-12.09Q646.73,363.2,648.46,376.68Z" transform="translate(-619.11 -288.91)" style="fill: #f02324"/>
    <path d="M752.52,457.26a399.13,399.13,0,0,0-45.87-33.05C722.39,434.49,737.71,445.46,752.52,457.26Z" transform="translate(-619.11 -288.91)" style="fill: #f02324"/>
  </g>
</svg>
