<svg xmlns="http://www.w3.org/2000/svg" viewBox="0 0 564.2 351.64">
  <path d="M1048.41,767.09c-.81-.32-1.09-.38-1.09-.44q0-3.84.08-7.67c.86.2,2.18.13,2.52.67C1051.73,762.5,1050.85,764.93,1048.41,767.09Z" transform="translate(-916.01 -467.96)" style="fill: #fff"/>
  <path d="M940.69,772.59c97.86,15.07,193.78,7.7,281-41.79C1300.66,686,1362.15,614,1420.36,545.9a17.46,17.46,0,0,1,12.11-6.52q-.35-6.69-1.15-13.38c-19.67,11.39-41.88,15-66.2,24.73-24,9.57-34.34-29.18-10.56-38.67,28.94-11.56,54.68-11.39,74.94-37.78,9.83-12.8,29.58-4.23,33.65,8.74A197.21,197.21,0,0,1,1469,507c6.94,2.22,12.1,8.15,11,17.92-5.75,53.24-15.46,105.79-25.39,158.38-4.84,25.63-43,15.41-38.88-9.77,4.17-25.53,9.75-51,13.36-76.53-59.47,68.32-123.19,134.36-203.71,177.58-91,48.85-194.47,52.35-294.52,37C905.32,807.54,915.39,768.7,940.69,772.59Z" transform="translate(-916.01 -467.96)" style="fill: #f02324"/>
</svg>
