<svg xmlns="http://www.w3.org/2000/svg" viewBox="0 0 30.24 22.34">
  <path d="M21,9.66q-2-1.74-4-3.49a34.07,34.07,0,0,1-2.59-2.35A2.11,2.11,0,0,1,14.25.91,2,2,0,0,1,17.08.36,19,19,0,0,1,19.43,2c3,2.4,5.9,4.86,8.89,7.24,2.55,2,2.61,4-.12,5.87-3.43,2.33-7,4.49-10.48,6.69-1.08.67-2.29.88-3.11-.35s-.34-2.2.74-3,2.12-1.72,3.61-2.95a17.88,17.88,0,0,0-2.39-.23c-4,.23-8.06.5-12.1.75a9.72,9.72,0,0,1-2.22,0C1,15.82-.06,15.23,0,13.78s1.08-1.84,2.42-1.93c5.3-.38,10.6-.85,15.9-1.29.83-.07,1.65-.17,2.48-.26Z" style="fill: #fff"/>
</svg>
