<svg xmlns="http://www.w3.org/2000/svg" viewBox="0 0 25.87 19.48">
  <path d="M12.21,11.55c.95.61,1.91,1.21,2.85,1.84a38.25,38.25,0,0,1,3.14,2.19,2,2,0,0,1,.45,2.87,2.09,2.09,0,0,1-2.8.8,12.33,12.33,0,0,1-1.69-.88C10.27,16.15,6.39,13.91,2.5,11.7-.63,9.94-.89,7.81,2.12,6,5.47,3.9,9,2.18,12.54.4c1.09-.55,2.31-.69,3.1.63.65,1.1.24,2-1.34,3.07-.77.51-1.56,1-2.92,1.85A14.51,14.51,0,0,0,14,6.16c1.35,0,5.29.23,6.72.25a18.93,18.93,0,0,1,3.2.26,2.08,2.08,0,0,1,2,2.13c-.05,1.46-1.06,2-2.39,2-3.94.06-3.76,0-7.7.11L12.37,11C12.31,11.16,12.26,11.35,12.21,11.55Z" style="fill: #fff"/>
</svg>
