<svg xmlns="http://www.w3.org/2000/svg" viewBox="0 0 36.36 111.86">
  <path d="M160.48,313.27c.84-.42,1.19-4.85,1.25-15.46.05-8.79.21-11.36.9-13.87,1-3.54,1-3.59,4.38-7.79,3.77-4.67,1.89-3.43,6.94-7.08h0c2.05-.37-.64-.48,1.89-.33,2.09.12,4.76.25,5.93.28,2.34.05,3.33.4,3.33,1.17,0,1-2,1.3-6.86.89-4.16.85-3.13.15-7.65,4.63-5.38,5.34-6.26,8.61-6.27,23.45,0,10.6-.43,13.77-2.2,16.78-1.55,2.62-1.58,6.9-6.13,6.9-1.7,0-1.69.58-1.69.7s-.1.91,1.5,2.33a22.27,22.27,0,0,1,3.55,3.72c.35.63.64,1,.65.8,0-.55.43-.05,2.5,2.41a27.63,27.63,0,0,1,5.17,10.33c.53,2.23.48,3-.46,7.32a21.68,21.68,0,0,0-.76,6.75,17.32,17.32,0,0,0,2.47,6.55,3,3,0,0,1,.65,1.64c0,.48.16.88.35.88s.67.56,1,1.25a6.24,6.24,0,0,0,.95,1.45,60.08,60.08,0,0,1,4.07,4.84c1.53,2,4.85,4.81,5.54,4.67.35-.07.46-.06.26,0s-.14.4.16.69c.69.68.18,1.33-1.05,1.33-.69,0-.89-.18-.69-.6s.08-.5-.19-.37-.47.07-.47-.14-.3-.44-.67-.5c-1.26-.24-7.79-7.24-10.36-11.12-3-4.56-4.2-8-4.25-12.49a20,20,0,0,1,.54-5.41,14.15,14.15,0,0,0,.38-7.08c-.33-1.61-2.61-6.65-3.17-7a5.94,5.94,0,0,1-.9-1.16,18.11,18.11,0,0,0-2.49-2.67c-1-.93,1.4.94,1.4.68s-.31-.57-.68-.68a2.83,2.83,0,0,1-1.24-1.06c-.45-.68-.43-.78.09-.54.35.17,0-.27-.79-1-2.56-2.3-3.08-2.69-3.51-2.69-.71,0-5.34-5-5.15-5.47.1-.24,1.09-.38,2.27-.33,8,.34,6.17-1.25,7.15-2.3m25,61.22" transform="translate(-148.74 -268.67)" style="fill: #21805c"/>
</svg>
