<svg xmlns="http://www.w3.org/2000/svg" viewBox="0 0 495.71 380.01">
  <path d="M338.77,489.94c-.06-1.23.28-1.92.76-1.54a2,2,0,0,1,.11,2.24c-.46.94-.8.66-.87-.7Zm56.93-23.87c-3.06-1.39-3.25-7.2-.3-9.18,1.82-1.23,2.16-1,2.16,1.58s.47,3,4,2.45c2.17-.32,7.84-1.06,12.59-1.65s9.94-1.22,11.52-1.43a9.71,9.71,0,0,0,3.6-1,78.24,78.24,0,0,1,8.69-3.77c9.31-3.65,11.29-7.12,14.69-12.92,6.64-11.31,7.19-13.37,6.59-24.6-.7-13.12-3.21-21.22-9.74-31.47-16.51-25.86-16.58-37.91-.39-66.54,3.27-5.79,12.68-19.32,14.68-17.69.52.42,0,1.23-1.13,1.81-3.22,1.61-.64,2.69,2.83,1.18,1.69-.73,2.89-2.22,2.67-3.31-.53-2.52,7.44-10.73,10.41-10.73,2.18,0,5.68-2.14,5.68-3.47s-9.38-4.53-22.31-7.76c-26-6.49-26.19-15.22-29.63-23.68-2-5,.76-19.08,6.94-34.81,11.34-28.85,16.64-58.07,13.3-73.28-2.56-11.63-8.26-18.31-19.51-22.87-11.09-4.5-18.61-4.23-21.73-.77-1.21,1.35-1.46,2.66-.65,3.45,1.78,1.75.16,2.82-4.3,2.84a15.75,15.75,0,0,0-5.62,1c-2.61,1.35-8.9.21-8.9-1.6,0-.82-1-1.8-2.16-2.17s-2.16-1.17-2.16-1.78c0-1.35,13.83-8.39,14.85-7.55.41.33,2.08,0,3.71-.7s7.4-1.32,12.8-1.37c7.76,0,12.36.72,22,3.72,6.69,2.09,5.06,3.2,6.8,4.22,4.55,2.69,11.89,16.29,13.6,25.21,2.72,14.16-4.21,47.72-16,77.73-4.57,11.6-6.34,22.49-4.42,27.21,1.55,3.81-8.13,7.7,6.37,13.59,8.8,3.57,17,6.49,18.3,6.49,3.56,0,25,7,27.78,9,5.2,3.82,2.69,7-11.16,14.15-11,5.66-12.11,6.34-17,10.2a59.13,59.13,0,0,1-6.73,4.68c-5.35,2.72-3.15,11.76-7.41,21.55-3.51,8.08-4.57,12.53-4.71,19.83-.18,8.93.17,10.05,6.76,21.69,12.55,22.17,14.25,27.05,14.42,41.48.22,18-3.18,26.58-14.53,36.77-6.08,5.45-2.22,4-8.81,6.45-15,5.51-43.28,10.08-48.3,7.8Zm38.12-8.81a3.47,3.47,0,0,0-2.76.09c-.48.39.37.67,1.89.62,1.67-.06,2-.34.87-.71ZM35.59,246.31c2.52-1.27,3.61-14.69,3.78-46.83.14-26.66.65-34.45,2.73-42,2.94-10.73,3-10.88,13.26-23.59,11.43-14.17,5.73-10.39,21-21.46h0a89.55,89.55,0,0,1,20.87-1c6.34.38,14.44.76,18,.84,7.07.18,10.08,1.24,10.08,3.55,0,3.16-6.18,4-20.8,2.7-26.87-2.33-24.62.47-38.31,14-16.32,16.18-19,26.1-19,71.07,0,32.1-1.29,41.72-6.65,50.83-4.69,8-4.78,20.91-18.57,20.91-5.17,0-5.14,1.75-5.14,2.14s-.29,2.75,4.56,7,9.69,9.35,10.74,11.28,1.94,3,2,2.44c.09-1.67,1.32-.15,7.58,7.3,6.78,8,13.23,20.93,15.68,31.29C59,343.55,58.82,346,56,359c-2.12,9.68-2.89,16.58-2.29,20.45,1.06,6.88,4.72,16.57,7.48,19.83a9,9,0,0,1,2,5c0,1.47.49,2.66,1.09,2.66s2,1.71,3.13,3.8a19.59,19.59,0,0,0,2.88,4.38c1,.7,8.28,9.35,12.34,14.68,4.64,6.1,14.69,14.58,16.78,14.15,1.06-.22,1.42-.17.79.11s-.41,1.22.48,2.09c2.11,2.06.56,4-3.18,4-2.07,0-2.69-.54-2.09-1.81.49-1,.25-1.51-.56-1.1s-1.43.19-1.43-.44-.91-1.32-2-1.53c-3.81-.71-23.59-21.92-31.4-33.68C50.72,397.75,47.18,387.32,47,373.73c-.07-6.64.67-14,1.63-16.38,2.09-5.15,2.61-14.56,1.17-21.45-1-4.88-7.92-20.17-9.62-21.32a17.14,17.14,0,0,1-2.71-3.5A56.31,56.31,0,0,0,30,303c-3.14-2.84,4.23,2.83,4.23,2.05s-.93-1.72-2.06-2.08a8.73,8.73,0,0,1-3.75-3.18c-1.36-2.07-1.31-2.38.27-1.64,1.07.5,0-.84-2.38-3-7.78-7-9.34-8.17-10.66-8.17C13.48,287-.57,271.83,0,270.44c.3-.73,3.28-1.17,6.88-1,24.16,1,18.69-3.79,21.66-6.95M104.23,448" transform="translate(0 -111.18)" style="fill: #21805c"/>
</svg>
