<svg xmlns="http://www.w3.org/2000/svg" viewBox="0 0 260.26 266.87">
  <path d="M287.12,417.69c0-.85.16-1.33.43-1.06a1.61,1.61,0,0,1,.06,1.55c-.26.65-.45.46-.49-.49Zm27.29-13.57c-1.72-1-1.83-5-.17-6.38,1-.85,1.22-.68,1.22,1.1s.27,2.06,2.23,1.7c1.23-.22,4.43-.74,7.1-1.14l6.5-1a4.68,4.68,0,0,0,2-.7,40.93,40.93,0,0,1,4.9-2.61c5.25-2.53,11.16-7.95,13.08-12,3.74-7.86,4.05-9.29,3.71-17.09-.39-9.11-1.8-14.73-5.49-21.85-9.3-18-9.34-26.33-.22-46.21,1.85-4,13.55-15.42,14.68-14.29.29.29,0,.86-.64,1.26-1.81,1.12-.36,1.87,1.6.82a2.6,2.6,0,0,0,1.5-2.3c-.3-1.75,4.2-7.45,5.87-7.45,1.23,0,3.21-1.49,3.21-2.41s-5.29-3.15-12.58-5.39c-14.68-4.51-21.17-8.57-23.11-14.45-1.15-3.49.43-13.25,3.91-24.17,6.4-20,9.39-40.33,7.5-50.89-1.44-8.08-4.66-12.72-11-15.89s-15.29-3.93-17.05-1.53c-.68.94-.82,1.85-.36,2.4,1,1.21.08,1.95-2.43,2a7.42,7.42,0,0,0-3.17.69c-1.47.93-5,.15-5-1.12a1.86,1.86,0,0,0-1.21-1.5c-.67-.26-1.22-.81-1.22-1.23,0-1,7.79-5.83,8.37-5.25.23.23,1.17,0,2.1-.48s4.16-.93,7.21-.95c4.38-.05,7,.49,12.39,2.58a58.51,58.51,0,0,1,8.63,3.93c2.57,1.86,6.71,11.31,7.67,17.51,1.53,9.83-2.37,33.13-9,54-2.58,8.05-3.57,15.61-2.49,18.89.87,2.65,1.82,3.35,10,7.44,5,2.48,9.6,4.51,10.32,4.51,2,0,14.07,4.83,15.66,6.27,2.93,2.65,1.52,4.86-6.29,9.82-6.18,3.93-6.83,4.41-9.61,7.09a35.56,35.56,0,0,1-3.79,3.25c-3,1.88-8.18,10.16-10.58,17a37.52,37.52,0,0,0-2.66,13.78c-.1,6.19.1,7,3.81,15.06,7.08,15.4,8,18.78,8.13,28.81.12,12.49-1.79,18.46-8.19,25.53a27.67,27.67,0,0,1-9.76,7.48c-8.45,3.83-24.41,7-27.24,5.42ZM335.9,398a1.61,1.61,0,0,0-1.55.06c-.27.27.21.46,1.06.43s1.14-.23.49-.49Zm-150.29-8.78c-11.69-2.58-18.22-7.06-24.66-16.9-5.77-8.83-5.82-8.93-7.48-16.39-1.17-5.27-1.45-10.69-1.54-29.2-.09-22.32-.7-31.64-2.12-32.52a2.41,2.41,0,0,1-.75-1.81c0-1.73-2.15-4.29-5.21-6.29-2.37-1.55-4.6-1.67-18.22-.95-2,.1-3.71-.2-3.88-.7-.33-1,10-12.51,11.18-12.51.75,0,1.63-.83,6-5.67,1.34-1.48,1.95-2.41,1.34-2.06-.89.51-.92.3-.15-1.14a5.32,5.32,0,0,1,2.11-2.21,1.81,1.81,0,0,0,1.17-1.44c0-.55,1.45-2.61,3.21-4.58a37.18,37.18,0,0,0,4.26-5.62,12.43,12.43,0,0,1,1.53-2.43c1-.8,4.85-11.42,5.43-14.81.81-4.78.52-11.32-.66-14.89-.54-1.65-1-6.77-.92-11.38.08-9.44,2.08-16.68,7.25-26.28,4.41-8.17,15.56-22.9,17.7-23.39.64-.15,1.15-.63,1.15-1.07s.36-.57.8-.3.6,0,.32-.76c-.34-.89,0-1.26,1.18-1.26,2.11,0,3,1.36,1.8,2.79-.51.61-.63,1.26-.28,1.46s.16.23-.44.07c-1.18-.29-6.85,5.59-9.46,9.83a122.08,122.08,0,0,1-7,10.19,15.44,15.44,0,0,0-1.63,3.05c-.63,1.45-1.42,2.63-1.76,2.63s-.61.84-.61,1.85a7.12,7.12,0,0,1-1.1,3.45c-1.56,2.27-3.62,9-4.22,13.78-.34,2.68.1,7.48,1.29,14.2,1.61,9,1.7,10.72.8,15.42a64.59,64.59,0,0,1-8.84,21.73c-3.53,5.17-9.82,12.22-9.87,11.07,0-.41-.52.35-1.11,1.69s-3.32,4.86-6.06,7.83a49,49,0,0,0-5,5.89c0,.26,2.39.48,5.31.48,7.77,0,13.42,3,16.06,8.52,3,6.33,3.74,13,3.76,35.3,0,31.23,1.52,38.12,10.72,49.36,7.71,9.42,19.25,13.36,34.4,11.75,8.24-.88,11.72-.32,11.72,1.87,0,1.61-1.69,2.34-5.68,2.47-2,.06-6.57.32-10.14.58a41.29,41.29,0,0,1-11.77-.69Zm2.89-235.05c-2.18-2.12-.62-3.49,1.76-1.54,1.38,1.12,1.57,1.67.81,2.27S189.58,155.22,188.5,154.17Z" transform="translate(-121.74 -151.69)" style="fill: #21805c"/>
</svg>
