<svg xmlns="http://www.w3.org/2000/svg" viewBox="0 0 248.1 36.34">
  <path d="M3.85,36.24c-.16-1.68-.27-3.27-.48-4.86-.26-2-.58-4-.9-6-.53-3.29-1.12-6.57-1.62-9.86C.52,13.33.2,11.17,0,9a10.46,10.46,0,0,1,.3-3.69C.91,3.31,2,2.86,5.45,2.9c7.08.08,14.16.26,21.25.22C36.54,3.07,46.39,3,56.22,2.7q17.22-.46,34.42-1.28c19.52-.92,39-.61,58.57-.38,17,.21,34,.15,51-.46C208.41.29,216.6.16,224.79.05c6.14-.09,12.28,0,18.42,0,.48,0,.95,0,1.42,0,2.52.18,3.55.76,3.47,2.25a49.72,49.72,0,0,1-.72,7.29,50.37,50.37,0,0,0-.56,11.56c.06,3,.05,6.07.05,9.1a6.57,6.57,0,0,1-.2,1.38c-.36,1.7-1.14,2.19-4.06,2.56-1.15.15-2.32.27-3.49.37-9.36.85-18.79,1.14-28.25,1.25-12.84.14-25.67.36-38.51.33-10.79,0-21.57-.36-32.35-.57-6.77-.14-13.55-.21-20.31-.46-19-.71-38.09-.94-57.15-.82-8.56.05-17.13.58-25.68,1-10.52.47-21,1.21-31.59,1C5,36.31,4.67,36.28,3.85,36.24Zm3.2-2.4c1.21,0,2.15,0,3.08,0,7.23-.27,14.47-.51,21.69-.82,9.9-.41,19.78-1.18,29.68-1.26q28.69-.24,57.39.8c7.94.29,15.9.38,23.85.53,9.76.19,19.52.5,29.29.5,14,0,28-.25,42.06-.41,8.59-.1,17.15-.48,25.63-1.32,2.57-.26,2.63-.28,2.66-1.85,0-3-.06-5.89,0-8.83.09-3.63.23-7.25.48-10.88.15-2.16.56-4.3.83-6.46a10.56,10.56,0,0,0,0-1.26c-2.09,0-3.89,0-5.69,0-13.4-.2-26.78.26-40.14.65-18,.54-36.07.57-54.1.28-21.52-.35-43-.13-64.47.83-13.42.61-26.89,1-40.34,1.21-10.7.16-21.42-.13-32.13-.21H4.68C3.55,6.74,3.93,8,4.11,9.3c.28,2,.51,4,.76,6,.41,3.26.81,6.51,1.2,9.77q.4,3.36.79,6.72C6.92,32.42,7,33,7.05,33.84Z"/>
</svg>
