<svg xmlns="http://www.w3.org/2000/svg" viewBox="0 0 248.1 41.95">
  <path d="M3.85,41.84c-.16-1.94-.27-3.78-.48-5.62-.26-2.32-.58-4.64-.9-7-.53-3.8-1.12-7.59-1.62-11.39C.52,15.39.2,12.9,0,10.41a13.91,13.91,0,0,1,.3-4.26C.91,3.82,2,3.3,5.45,3.35c7.08.09,14.16.29,21.25.25,9.84-.05,19.69-.17,29.52-.48q17.22-.56,34.42-1.49c19.52-1,39-.69,58.57-.42,17,.23,34,.16,51-.54C208.41.34,216.6.19,224.79.05c6.14-.09,12.28,0,18.42,0,.48,0,.95,0,1.42.05,2.52.2,3.55.88,3.47,2.6a65.81,65.81,0,0,1-.72,8.41,67.16,67.16,0,0,0-.56,13.36c.06,3.5.05,7,.05,10.5a8.43,8.43,0,0,1-.2,1.58c-.36,2-1.14,2.54-4.06,3-1.15.17-2.32.3-3.49.43-9.36,1-18.79,1.31-28.25,1.43-12.84.16-25.67.42-38.51.38-10.79,0-21.57-.41-32.35-.66-6.77-.15-13.55-.24-20.31-.53-19-.81-38.09-1.07-57.15-.94-8.56.06-17.13.67-25.68,1.12-10.52.55-21,1.39-31.59,1.2C5,41.92,4.67,41.89,3.85,41.84Zm3.2-2.77c1.21,0,2.15,0,3.08,0,7.23-.3,14.47-.58,21.69-.93,9.9-.49,19.78-1.37,29.68-1.46q28.69-.29,57.39.92c7.94.34,15.9.44,23.85.61,9.76.22,19.52.58,29.29.57,14,0,28-.27,42.06-.46a254.2,254.2,0,0,0,25.63-1.53c2.57-.29,2.63-.32,2.66-2.14,0-3.39-.06-6.79,0-10.19.09-4.18.23-8.37.48-12.56.15-2.49.56-5,.83-7.45a14.19,14.19,0,0,0,0-1.46c-2.09,0-3.89,0-5.69,0-13.4-.23-26.78.29-40.14.75-18,.62-36.07.66-54.1.32-21.52-.4-43-.15-64.47,1C65.88,5.7,52.41,6.16,39,6.39c-10.7.19-21.42-.14-32.13-.24-.76,0-1.51,0-2.15,0-1.13,1.63-.75,3.11-.57,4.59.28,2.32.51,4.65.76,7Q5.49,23.35,6.07,29q.4,3.87.79,7.76C6.92,37.43,7,38.11,7.05,39.07Z"/>
</svg>
