<svg xmlns="http://www.w3.org/2000/svg" viewBox="0 0 248.1 32.71">
  <path d="M3.85,32.63c-.16-1.51-.27-3-.48-4.38-.26-1.81-.58-3.62-.9-5.43-.53-3-1.12-5.92-1.62-8.89C.52,12,.2,10.06,0,8.12A8.52,8.52,0,0,1,.34,4.8C.91,3,2,2.58,5.45,2.61c7.08.07,14.16.23,21.25.2,9.84,0,19.69-.14,29.52-.38Q73.44,2,90.64,1.27c19.52-.82,39-.54,58.57-.33,17,.18,34,.13,51-.42C208.41.26,216.6.14,224.79,0c6.14-.07,12.28,0,18.42,0,.48,0,.95,0,1.42,0,2.52.15,3.55.68,3.47,2a40.39,40.39,0,0,1-.72,6.56,40.93,40.93,0,0,0-.56,10.41c.06,2.73.05,5.47.05,8.2a5.26,5.26,0,0,1-.2,1.23c-.36,1.53-1.14,2-4.06,2.31-1.15.14-2.32.24-3.49.34-9.36.76-18.79,1-28.25,1.12-12.84.12-25.67.32-38.51.29-10.79,0-21.57-.32-32.35-.51-6.77-.12-13.55-.19-20.31-.41-19-.64-38.09-.84-57.15-.74-8.56.05-17.13.53-25.68.87-10.52.43-21,1.09-31.59.94C5,32.69,4.67,32.66,3.85,32.63Zm3.2-2.16c1.21,0,2.15,0,3.08,0,7.23-.23,14.47-.45,21.69-.73,9.9-.38,19.78-1.06,29.68-1.14q28.69-.21,57.39.72c7.94.27,15.9.34,23.85.48,9.76.17,19.52.45,29.29.45,14,0,28-.22,42.06-.37,8.59-.09,17.15-.43,25.63-1.19,2.57-.23,2.63-.24,2.66-1.67,0-2.64-.06-5.29,0-7.94.09-3.27.23-6.53.48-9.8.15-1.94.56-3.87.83-5.81a8.65,8.65,0,0,0,0-1.14c-2.09,0-3.89,0-5.69,0-13.4-.19-26.78.22-40.14.58-18,.48-36.07.51-54.1.25-21.52-.31-43-.12-64.47.75C65.88,4.45,52.41,4.81,39,5c-10.7.14-21.42-.12-32.13-.19H4.68c-1.13,1.27-.75,2.42-.57,3.57.28,1.81.51,3.63.76,5.44q.62,4.39,1.2,8.79.4,3,.79,6.06C6.92,29.19,7,29.72,7.05,30.47Z"/>
</svg>
