<svg xmlns="http://www.w3.org/2000/svg" viewBox="0 0 287.35 144.58">
  <path d="M249.89,66a1,1,0,0,1-.95-.67,1.11,1.11,0,0,1,.25-1.13c.54-.48,1-.81,1.48-1.22a34.88,34.88,0,0,0,2.75-2.55A31,31,0,0,0,258,54.49a23.67,23.67,0,0,0,2.75-6.9,20.13,20.13,0,0,0,.21-7.38,31.47,31.47,0,0,0-6.06-13.42,49.5,49.5,0,0,0-10.69-10.3l.17.09-3.52-1.21a4.52,4.52,0,0,1-2-1.21A4.4,4.4,0,0,1,237.73,12l.46.65A70.42,70.42,0,0,0,221.43,6,53.61,53.61,0,0,0,203.7,4.24a30.21,30.21,0,0,0-16,6,30.05,30.05,0,0,0-9.62,14l.12-.72v1a3.38,3.38,0,0,1-.07.4,2.84,2.84,0,0,1-1,1.55,3,3,0,0,1-1.52.66,3.11,3.11,0,0,1-1.55-.21,2.85,2.85,0,0,1-1.37-1.15,3.25,3.25,0,0,1-.35-.85,1.94,1.94,0,0,1-.06-.4l0-.2v-.1a1.64,1.64,0,0,0,0,.45,1.78,1.78,0,0,0,.42.84,1.54,1.54,0,0,0,.19.19l.08.06,2.63-.37a2.54,2.54,0,0,1-2.49.7,2.57,2.57,0,0,1-.67-.3l-.2-.13-.15-.12-.63-.44.54.28c-1.5-.5-3.17-.92-4.82-1.33l-2.51-.61-.65-.17-.66-.17-1.24-.34a63.74,63.74,0,0,0-9.83-1.94c-3.33-.39-6.72-.53-10.14-.59-1.7,0-3.42,0-5.14,0h-4.71c-.07,0-.38,0-.5,0a2.93,2.93,0,0,1-1.19-.47l.17.1a81.55,81.55,0,0,0-17.42-7.22A103.26,103.26,0,0,0,94.7,9c-12.65-1.27-25.65-.75-37.84,3a57.31,57.31,0,0,0-17.07,8.26A34.75,34.75,0,0,0,33,26.75,24.53,24.53,0,0,0,28.64,35a23.9,23.9,0,0,0-.71,9.31,34.37,34.37,0,0,0,2.37,9.15A63.36,63.36,0,0,0,40.52,69.59l.19.23a1.75,1.75,0,0,1,.28.44,1.55,1.55,0,0,1,0,1.18,1.63,1.63,0,0,1-.78.89,1.7,1.7,0,0,1-.53.16l-.35,0L37,72.79c-1.6.19-3.19.4-4.78.65a78,78,0,0,0-9.36,2,41.44,41.44,0,0,0-8.76,3.58,22.42,22.42,0,0,0-7,5.92,16.42,16.42,0,0,0-3.2,8.35A19.08,19.08,0,0,0,4,97.86a23.83,23.83,0,0,0,1.14,4.45c2.09,5.82,6,10.94,10.43,15.41a74,74,0,0,0,15,11.54,71.3,71.3,0,0,0,8.44,4.2,60,60,0,0,0,8.92,2.83,41.48,41.48,0,0,0,18.3.42,27.54,27.54,0,0,0,8.29-3.29,29,29,0,0,0,3.62-2.63,32.91,32.91,0,0,0,3.18-3.18,36.71,36.71,0,0,0,5-7.61,45.48,45.48,0,0,0,1.85-4.23l.2-.54.1-.27a4.4,4.4,0,0,1,.4-.8,3.36,3.36,0,0,1,1.64-1.27,3.16,3.16,0,0,1,2.47.12,3.05,3.05,0,0,1,1.1.93,4.15,4.15,0,0,1,.32.53l.07.14.27.5.53,1a35.06,35.06,0,0,0,5.25,7.35,40.94,40.94,0,0,0,3.32,3.13c.59.49,1.15,1,1.77,1.46l1.87,1.34a18.79,18.79,0,0,0,1.93,1.26l2,1.21,2.06,1.06a22.42,22.42,0,0,0,2.09,1l2.12.94c.72.31,1.46.55,2.18.83,1.44.58,2.94,1,4.43,1.48s3,.8,4.52,1.18,3.05.67,4.6.86l2.31.36,2.33.24c1.55.2,3.11.21,4.66.32a61.87,61.87,0,0,0,18.35-2.25,48.58,48.58,0,0,0,8.48-3.44,40.13,40.13,0,0,0,3.92-2.29c.65-.4,1.22-.9,1.83-1.34a18.52,18.52,0,0,0,1.76-1.42,33.38,33.38,0,0,0,9.88-14.8l.68-2.17.09-.27,0-.13a4.18,4.18,0,0,1,.26-.68,3.38,3.38,0,0,1,1.72-1.57,3.22,3.22,0,0,1,2.71.07,4.15,4.15,0,0,1,.52.33l.12.09.24.18c1.28.91,2.51,1.9,3.83,2.76s2.6,1.78,4,2.57l2,1.23c.67.4,1.37.75,2.06,1.14a79.06,79.06,0,0,0,17.41,7,62.6,62.6,0,0,0,18.57,2,56,56,0,0,0,34.34-13.84,42.43,42.43,0,0,0,6.32-7A33.31,33.31,0,0,0,286,98l.61-2.27.15-.57.08-.59.17-1.16.18-1.17.06-1.18c.07-.78,0-1.56,0-2.35a20.59,20.59,0,0,0-.85-4.61,19.64,19.64,0,0,0-2-4.24,22.94,22.94,0,0,0-6.79-6.55,37.37,37.37,0,0,0-8.67-4.08A70.87,70.87,0,0,0,249.89,66Zm0-.5a71.7,71.7,0,0,1,19.17,3.14,41.37,41.37,0,0,1,8.9,4,23.93,23.93,0,0,1,7.21,6.68,20.86,20.86,0,0,1,2.24,4.45,22.47,22.47,0,0,1,1.08,4.86c0,.83.14,1.67.1,2.5l0,1.24-.14,1.24-.14,1.24-.06.62-.14.61-.55,2.43a35.62,35.62,0,0,1-4.19,9,44.24,44.24,0,0,1-6.39,7.6,54.78,54.78,0,0,1-7.74,6.18,59.77,59.77,0,0,1-8.68,4.82,57.49,57.49,0,0,1-19.27,5,65,65,0,0,1-19.9-1.56,80.39,80.39,0,0,1-18.63-7.07c-.73-.39-1.48-.75-2.2-1.17L198.4,120c-1.45-.81-2.81-1.76-4.21-2.67s-2.7-1.92-4.06-2.88l-.25-.18-.12-.09a1.67,1.67,0,0,0,.27.17,1.83,1.83,0,0,0,1.53.07,1.62,1.62,0,0,0,.84-.77,3.06,3.06,0,0,0,.15-.4l-.05.15-.09.31-.76,2.47a38.62,38.62,0,0,1-11.25,17.15,47.48,47.48,0,0,1-18,9.66,66.84,66.84,0,0,1-20,2.44,76.93,76.93,0,0,1-19.76-3.28c-1.59-.52-3.2-1-4.75-1.64-.78-.31-1.58-.58-2.35-.93l-2.29-1a23.81,23.81,0,0,1-2.26-1.13l-2.24-1.19-2.15-1.34a22.93,22.93,0,0,1-2.12-1.41l-2.05-1.5c-.68-.52-1.31-1.1-2-1.65a47.64,47.64,0,0,1-3.69-3.56,39.36,39.36,0,0,1-5.9-8.44l-.6-1.15-.29-.58-.07-.12a1.34,1.34,0,0,0,.17.27,1.72,1.72,0,0,0,.64.54,1.7,1.7,0,0,0,1.29.09,1.47,1.47,0,0,0,.69-.55c.31-.59.06-.09,0,0l-.22.59c-.63,1.57-1.3,3.12-2.08,4.63a42,42,0,0,1-5.71,8.52A38.65,38.65,0,0,1,81,134.29a35.16,35.16,0,0,1-4.25,3A31.08,31.08,0,0,1,67.08,141a40.23,40.23,0,0,1-10.19.74,50.56,50.56,0,0,1-10-1.51A64.13,64.13,0,0,1,37.43,137a72.55,72.55,0,0,1-8.83-4.61,77.63,77.63,0,0,1-15.35-12.49c-4.5-4.83-8.52-10.32-10.68-16.77a27,27,0,0,1-1.15-5,21,21,0,0,1,0-5.14,18.8,18.8,0,0,1,3.86-9.44,24.55,24.55,0,0,1,7.84-6.31,45.29,45.29,0,0,1,9.23-3.57,77.46,77.46,0,0,1,9.6-2c1.61-.23,3.23-.43,4.85-.6l2.42-.23.26,0h0s0,0,0,0h0l0-.06-.19-.24A64.84,64.84,0,0,1,28.9,54C26.44,48,25.25,41.09,27.09,34.57a27.61,27.61,0,0,1,4.51-8.88,36.94,36.94,0,0,1,7-7l1-.74,1-.68,2.06-1.36Q44.85,14.66,47,13.5a67,67,0,0,1,9.1-3.81C68.61,5.48,82,4.57,95,5.51a107.71,107.71,0,0,1,19.46,3.16A83.7,83.7,0,0,1,132.94,16l.17.1a1.58,1.58,0,0,0-.59-.24h1.92l2.59,0c1.74,0,3.48,0,5.23,0,3.5.05,7,.19,10.57.59,1.78.2,3.54.45,5.32.81s3.49.82,5.18,1.28l1.26.36.58.16.61.16,2.52.64c1.7.44,3.38.88,5.16,1.49l.3.1.25.18.66.48.17.12,0,0,0,0-.1-.07a1.58,1.58,0,0,0-.49-.22,1.88,1.88,0,0,0-1.11,0,1.75,1.75,0,0,0-.66.42l2.64-.36a5.33,5.33,0,0,1,.46.31,2.78,2.78,0,0,1,.36.35,2.3,2.3,0,0,1,.54,1.05,2.57,2.57,0,0,1,.05.5V24.1c0-.05,0-.09,0-.17a1.61,1.61,0,0,0-.17-.42,1.53,1.53,0,0,0-.67-.57,1.35,1.35,0,0,0-.64-.08,1.22,1.22,0,0,0-.68.3,1.72,1.72,0,0,0-.52.95v-1l.12-.34A33.61,33.61,0,0,1,185.32,7.14,29.76,29.76,0,0,1,194,2.69,36.79,36.79,0,0,1,203.47,1a56.23,56.23,0,0,1,18.65,2.48,72.8,72.8,0,0,1,17,7.55l.39.24.07.41a2.5,2.5,0,0,0,1.76,2L245,15.06l.08,0,.08.06a50.83,50.83,0,0,1,10.6,11,32.91,32.91,0,0,1,5.94,14,22.84,22.84,0,0,1-3.23,14.69,31.21,31.21,0,0,1-4.67,6,37.71,37.71,0,0,1-2.8,2.57c-.48.38-1,.81-1.45,1.16a.63.63,0,0,0-.15.62A.53.53,0,0,0,249.91,65.47Z" transform="translate(-1.27 -0.92)" style="fill: #272525"/>
</svg>
