<svg xmlns="http://www.w3.org/2000/svg" viewBox="0 0 375.29 219.74">
  <path d="M323.46,99.23c-1.11,0-1.33-1.57-.53-2.28,11.79-10.57,19.18-26.45,13.87-43.86-3.68-12.06-11.09-22.22-20.12-30.2a35.93,35.93,0,0,0-4.53-1.95,5,5,0,0,1-3.26-4.14A84.89,84.89,0,0,0,284.32,5.06C273.43,2,261.48,1.11,250.8,5.77c-11.36,5-19.19,15.56-23.17,28.87v1.11a1.05,1.05,0,1,1-2.09,0c0-.15-.16-.32-.43-.51a.41.41,0,0,1-.61.09l-1.13-.95c-3.37-1.37-9.59-3-11-3.49a91.65,91.65,0,0,0-10.56-3c-10.17-2-20.66-1.68-30.93-1.68h-.14a.93.93,0,0,1-.44-.19,101.93,101.93,0,0,0-36.76-14.59c-26.7-5.12-59.3-3-82.17,15.93-9.13,7.57-16.54,18.7-17.11,32.3-.74,17.62,7.79,33.63,17,46.64a1.29,1.29,0,0,1-.73,2.1c-15.91,1.75-41.88,6.42-47.15,28.26-3.93,16.23,5.45,32.85,14.6,44,13.64,16.51,32.8,29.56,52.55,31.52,9.25.92,18.83-.65,26.88-6.39,9.53-6.8,15.67-17.91,19.43-30.06.28-.89,1.49-1.35,1.9-.29,10.92,28.09,40.83,40.93,65.39,41.79,27,1,54.51-12.89,61.68-46.12.15-.71,1-1.22,1.53-.74,23.66,21.34,54.34,33.3,83.55,21.65,18.89-7.53,40.24-26.66,41.77-52.15C374.58,108.69,344,100.19,323.46,99.23Z" style="fill: none;stroke: #272525;stroke-miterlimit: 10;stroke-width: 5px"/>
</svg>
