<svg xmlns="http://www.w3.org/2000/svg" viewBox="0 0 349.49 217.76">
  <path d="M318.46,95.23a1.32,1.32,0,0,1-.53-2.28c11.79-10.57,15.18-24.45,9.87-41.86-3.68-12.06-11.09-22.22-20.12-30.2a35.93,35.93,0,0,0-4.53-1.95,5,5,0,0,1-3.26-4.14C292,9.35,284.45,7.38,276.32,5.06,265.43,2,253.48,1.11,242.8,5.77c-11.36,5-24.19,9.56-28.17,22.87v1.11a1.05,1.05,0,1,1-2.09,0c0-.15-.16-.32-.43-.51a.41.41,0,0,1-.61.09l-1.13-.95c-3.37-1.37-9.59-3-11-3.49-3.48-1.15-6-1.26-9.56-2-10.17-2-20.66-1.68-30.93-1.68h-.14a.93.93,0,0,1-.44-.19c-11.36-7.44-21-9.13-33.76-11.59-26.7-5.12-59.3-3-82.17,15.93-9.13,7.57-16.54,18.7-17.11,32.3-.74,17.62.79,25.63,10,38.64a1.29,1.29,0,0,1-.73,2.1c-15.91,1.75-25.88,2.42-31.15,24.26-3.93,16.23,5.45,32.85,14.6,44,13.64,16.51,32.8,29.56,52.55,31.52,9.25.92,20,.73,26.88-6.39,4.93-5.13,4.41-5.69,10.43-17.06.44-.82,1.49,2.65,1.9,3.71,10.92,28.09,40.83,35.93,65.39,36.79,27,1,54.51-7.89,61.68-41.12a1,1,0,0,1,1.53-.74C263.07,190.67,279.79,196,304.93,187c19.16-6.83,45.05-26.83,41.77-52.15C343.21,107.87,333.07,100.31,318.46,95.23Z" style="fill: none;stroke: #272525;stroke-miterlimit: 10;stroke-width: 5px"/>
</svg>
