<svg xmlns="http://www.w3.org/2000/svg" viewBox="0 0 27.58 25.02">
  <g>
    <path d="M.54,20.22c3.51-4,12.1-11.53,12.1-11.53,2.65-2.35,5.31-5.12,8.13-7.2A10.44,10.44,0,0,1,24.27,0c1-.26,2.48,1.08,2.64,2.19a4.73,4.73,0,0,1-.67,2.26,2.85,2.85,0,0,1-.81.87c-7.37,6.16-10.83,8.59-20.27,19A3.15,3.15,0,0,1,1,24.08C-.93,22.46.54,20.22.54,20.22Z" style="fill: #fff"/>
    <path d="M8.55,2.32c3.7,2.94,10.79,10.25,10.79,10.25,2.2,2.27,4.77,4.51,6.74,6.93a9,9,0,0,1,1.45,3.05c.28.88-.84,2.25-1.82,2.44a4.19,4.19,0,0,1-2.05-.5,2.9,2.9,0,0,1-.81-.68c-5.79-6.29-8.1-9.26-17.77-17.21a2.81,2.81,0,0,1,.07-3.74A2.63,2.63,0,0,1,8.55,2.32Z" style="fill: #fff"/>
  </g>
</svg>
