<svg xmlns="http://www.w3.org/2000/svg" viewBox="0 0 578.09 729.5">
  <defs>
    <style>
      .a {
        fill: none;
        stroke: #000;
        stroke-linecap: round;
        stroke-miterlimit: 10;
        stroke-width: 25px;
      }
    </style>
  </defs>
  <line class="a" x1="242.6" y1="99.56" x2="12.5" y2="106.72"/>
  <path class="a" d="M340.92,56S509,17.85,568.65,19" transform="translate(-6.52 -6.5)"/>
  <path class="a" d="M88.17,151.37c-35,20.09-51.27,33.49-51.27,60.28s5,56.27,15,71,53.78,36.2,93.8,32.2S227,293.41,259.5,265.28s16.26-65.64,13.75-71-18.75-28.14-35-36.17" transform="translate(-6.52 -6.5)"/>
  <line class="a" x1="252.74" y1="181.81" x2="45.65" y2="188.96"/>
  <line class="a" x1="548.32" y1="172.63" x2="341.23" y2="179.78"/>
  <path class="a" d="M520.84,147.62c35,20.09,51.27,33.49,51.27,60.29s-5,56.26-15,71-53.77,36.17-93.79,32.15S382,289.63,349.52,261.49s-16.26-65.64-13.76-71,18.76-28.13,35-36.17" transform="translate(-6.52 -6.5)"/>
  <ellipse cx="235.45" cy="218.19" rx="19.67" ry="20.27"/>
  <ellipse cx="525.76" cy="209.85" rx="20.27" ry="21.46"/>
  <path d="M272.11,329.72A73,73,0,0,0,282.46,352c3,4.25,6.44,8.56,11.2,10.95,4.28,2.14,8.57,3,13.21,3.82l3.4.62a27.33,27.33,0,0,0,5.69.76,14.45,14.45,0,0,0,9.7-4.08,38.56,38.56,0,0,0,3.2-4.21L327,362.26a8.27,8.27,0,0,1,.74-.71l-2.43,1.88c2-1.45,4.08-2.38,5.91-4.12,3.32-3.16,4.63-7.46,4.91-11.92a48.13,48.13,0,0,0-1.31-12.82,56.25,56.25,0,0,0-4.22-11.82,54.74,54.74,0,0,0-6.88-10.67,52.93,52.93,0,0,0-10.26-9.57c-2.32-1.74-6.58-1.94-9.24-1.21a12.21,12.21,0,0,0-7.17,5.52,12.07,12.07,0,0,0-1.21,9.25l1.21,2.86a12,12,0,0,0,4.3,4.31l.62.46-2.47-1.85a41.91,41.91,0,0,1,7.32,7.38l-1.87-2.43a44.12,44.12,0,0,1,5.44,9.32l-1.21-2.87a43.68,43.68,0,0,1,3,10.76l-.43-3.19a30,30,0,0,1,.27,7.39l.43-3.19a7.87,7.87,0,0,1-.29,1.16l1.21-2.86a5,5,0,0,1-.57,1l1.88-2.43a6.9,6.9,0,0,1-.72.71l2.43-1.88c-1,.73-2.09,1.22-3.08,1.93a17.88,17.88,0,0,0-4.25,3.89c-.67.87-1.29,1.75-1.93,2.63l1.87-2.43a2.56,2.56,0,0,1-.45.48l2.43-1.87a2.46,2.46,0,0,1-.56.34l2.86-1.21-.35.09,3.19-.43a4.05,4.05,0,0,1-1.1,0l3.19.43c-2.55-.44-5.1-.93-7.65-1.4a34.42,34.42,0,0,1-6.7-1.68l2.86,1.21a14.43,14.43,0,0,1-3.22-1.88l2.42,1.88a23.37,23.37,0,0,1-3.41-3.55l1.88,2.43a60.81,60.81,0,0,1-7.62-13.16l1.21,2.87a66.82,66.82,0,0,1-2.75-7.88,12.41,12.41,0,0,0-5.51-7.17,12,12,0,0,0-16.42,4.3h0a12.44,12.44,0,0,0-1.21,9.25Z" transform="translate(-6.52 -6.5)"/>
  <path d="M252.58,440.48l2.67,16.37c.85,5.26,1.57,10.58,2.67,15.8A45.37,45.37,0,0,0,264.48,489,49.74,49.74,0,0,0,278,502.29a37.29,37.29,0,0,0,5.29,3,69,69,0,0,0,9,3.55,44.45,44.45,0,0,0,6.15,1.38c3.25.49,6.91,1.23,10.25.85,3.7-.42,6.54-.9,9.86-2.82a21,21,0,0,0,6.14-5.6,24.52,24.52,0,0,0,2.66-3.94,69.06,69.06,0,0,0,2.78-6.44c2.09-5.42,2.83-11.42,3.19-17.17.69-10.76-1-21.56.34-32.3l-.54,4c.21-1.54.48-3.07.83-4.58l-27.41,3.58a60.92,60.92,0,0,0,20.08,20.92,59.33,59.33,0,0,0,27.5,9,17.23,17.23,0,0,0,9.55-2.22,16.8,16.8,0,0,0,3.63-2.7l.45-.5a20,20,0,0,0,2.6-3.47c2.13-4.12,2.82-8,3.22-12.61a41.57,41.57,0,0,0-.82-10.14,40.28,40.28,0,0,0-1.7-6.56,152.26,152.26,0,0,0-6.22-14.8,103.21,103.21,0,0,0-5.21-9.94,70.09,70.09,0,0,0-9.63-12.7,60.56,60.56,0,0,0-7.29-6.08,31.33,31.33,0,0,0-5.37-3.2,11.09,11.09,0,0,0-5.58-1.78,11.42,11.42,0,0,0-6,.26,15.28,15.28,0,0,0-9,6.9c-1.84,3.48-2.76,7.7-1.51,11.55,1.14,3.53,3.4,7.32,6.89,9a32.42,32.42,0,0,1,5.95,3.65l-3-2.35a41.58,41.58,0,0,1,7.17,7.35l-2.35-3c5,6.54,8.51,14.1,11.72,21.63l-1.5-3.64a50.31,50.31,0,0,1,3.82,12.57l-.53-4a25.31,25.31,0,0,1,0,6.15l.54-4a19.41,19.41,0,0,1-.87,3.69l1.52-3.59a6.53,6.53,0,0,1-.47.91l2.34-3a2.27,2.27,0,0,1-.44.49l3-2.34a1.85,1.85,0,0,1-.59.35l3.58-1.51a2.7,2.7,0,0,1-.69.18l4-.54a14.37,14.37,0,0,1-3-.19l4,.54A45.17,45.17,0,0,1,345.13,443l3.58,1.51a47.74,47.74,0,0,1-10.35-6.06l3,2.34a46.18,46.18,0,0,1-8-7.93l2.35,3a45.72,45.72,0,0,1-3.53-5.31l-2.35-3-3-2.34-3.59-1.52a11.42,11.42,0,0,0-6-.26,7.38,7.38,0,0,0-3.78,1,7.55,7.55,0,0,0-3.31,1.93,14.35,14.35,0,0,0-5.38,7.79c-1.82,7.95-2.08,16.08-1.82,24.2.21,6.87.62,13.78-.26,20.62l.54-4a41.13,41.13,0,0,1-2.59,10l1.52-3.58a20.65,20.65,0,0,1-2.45,4.5l2.34-3a10.13,10.13,0,0,1-1.31,1.31l3-2.34a7.53,7.53,0,0,1-1.32.76l3.58-1.51a9.45,9.45,0,0,1-1.58.43l4-.54a22.28,22.28,0,0,1-5.53-.21l4,.53a44.35,44.35,0,0,1-11.08-3l3.58,1.51a38.27,38.27,0,0,1-8.24-4.77l3,2.35a32,32,0,0,1-5.4-5.33l2.35,3a29,29,0,0,1-3.67-6.25l1.51,3.59c-2.52-6.09-3.25-12.77-4.3-19.22l-3.38-20.73a16.68,16.68,0,0,0-6.89-9A15.29,15.29,0,0,0,263.11,422c-3.63,1.17-7.13,3.42-9,6.89l-1.51,3.59a15.08,15.08,0,0,0,0,8Z" transform="translate(-6.52 -6.5)"/>
  <path d="M128,483.5c-19.87-2.67-40.75,8.36-50.57,25.65-4.84,8.55-7.67,19-6.93,28.91.58,7.79,2.28,15.85,9.56,20.21,5.27,3.16,10.73,2.89,16.57,3.21a21.76,21.76,0,0,1,4.83.43c-3.73-1.11-1.31-.16-.15.05,1,.18,2,.38,3,.6,1.57.35,3.14.76,4.68,1.23q1.45.44,2.88.93c.47.16,4.29,1.64,2,.7s1.15.56,1.33.65c.72.35,1.43.72,2.13,1.1a57.74,57.74,0,0,1,5.1,3.1c.26.17,1.89,1.39,1.93,1.37-.49.3-2.34-2-.52-.34,1.59,1.51,3.2,2.92,4.67,4.55a16.08,16.08,0,0,1,1.93,2.27c-.24-.4-2-2.92-.43-.42,1.11,1.77,2.22,3.5,3.19,5.36.53,1,1,2.06,1.52,3.11.32.66,1,2.86,0-.07.78,2.22,1.64,4.41,2.36,6.66a139.89,139.89,0,0,1,3.61,13.76q.7,3.27,1.26,6.63c.17,1,.31,2,.48,3,.63,3.93-.17-2,.2,1.63,2.2,21.67,1.42,43.28.3,65-.45,8.55,7.84,16.74,16.35,16.35,9.24-.41,15.87-7.18,16.36-16.35,1.43-27.63,2.45-55.35-3-82.67-2.58-13.08-6.63-27-14-38.28a68.88,68.88,0,0,0-28-24.46,85.7,85.7,0,0,0-19.39-6.67,114.71,114.71,0,0,0-12.1-1.7c-1.64-.14-3.25-.23-4.84-.27h-1.8c-3.73.07.27-1.3,4.14,1.36l5.87,5.86c.61,1,.82,5.09.78,2.17,0-1.26-.11-2.52-.07-3.78a15,15,0,0,1,.12-1.89c.12-1.25.06-.82-.18,1.22a30.9,30.9,0,0,1,.82-3.7c.23-.82.65-2.95,1.22-3.6q-1.14,2.65-.36,1c.27-.57.58-1.13.89-1.68s1.48-2.95,2-3.18c-1.17,1.45-1.36,1.73-.6.81a18.6,18.6,0,0,1,1.28-1.4,12.34,12.34,0,0,1,2.78-2.57l-1.31,1c.69-.49,1.39-1,2.11-1.39.89-.54,2.35-1.75,3.34-1.81l-1.59.65c.82-.31,1.58-.6,2.38-.82,1.21-.38,2.45-.62,3.67-1,3-.82-1.92,0,0,0a54.52,54.52,0,0,1,8.18.26c8.51,1.13,16.71-8.34,16.36-16.36-.45-9.81-7.24-15.13-16.36-16.35Z" transform="translate(-6.52 -6.5)"/>
  <path d="M167,701.88c.31-.06,5.22-1,1.63-.43,1.49-.22,3-.32,4.52-.4q3.78-.22,7.57-.07c1.51.07,3,.16,4.54.3.35,0,5.18.76,1.7.16,2.51.43,5,.82,7.5,1.41,11.14,2.45,21.88,6.41,32.57,10.36a435.54,435.54,0,0,0,66.72,18.54c8.36,1.64,18.06-2.39,20.12-11.45,1.85-8.12-2.45-18.33-11.45-20.11a459.73,459.73,0,0,1-69.55-19.63C208.75,671.71,184,665,158.26,670.28c-8.39,1.73-14,12.1-11.44,20.12,2.87,8.88,11.13,13.27,20.11,11.45Z" transform="translate(-6.52 -6.5)"/>
  <path d="M289.74,730.62c29.85,6.12,60.83,5.9,91.15,4.71,15.43-.59,30.83-2.64,44.89-9.35,15.22-7.26,25.87-22.54,23.06-39.69-2.77-16.79-19-25.26-33.27-30.9-8-3.16-18.3,3.45-20.11,11.45-2.15,9.42,2.88,16.73,11.44,20.12l2.07.81c-2.18-.91-2.45-1-.81-.28,1.37.69,2.76,1.32,4.08,2.07.68.37,3.65,1.63,3.85,2.4q-2.73-2.19-.72-.51l.82.73c.5.5,1,1,1.45,1.56q-2.17-2.94-.73-.77c.81,1.56.69,1.19-.35-1.08a14.31,14.31,0,0,1,.56,2c-.27-2.45-.38-2.79-.32-.92.42-2.46.44-2.77,0-1-.92,3.36,1.48-2.53-.16.28-1,1.47-.82,1.33.51-.43-.51.62-1.06,1.21-1.63,1.78s-1.19,1.13-1.81,1.64q2.55-1.89.33-.32-2.13,1.26-4.27,2.45c-2.86,1.64,2.3-.63-1,.43a100.42,100.42,0,0,1-11.17,3.1c-.68.13-6.73,1.07-2.85.57-1.69.22-3.39.38-5.09.53-15.22,1.3-30.74,1.14-46,1-7.92-.08-15.86-.35-23.76-1-1.84-.15-3.68-.31-5.52-.51-.58-.06-6.86-.82-3.5-.36-4.18-.56-8.34-1.32-12.47-2.16-8.36-1.72-18.07,2.41-20.12,11.45-1.86,8.18,2.45,18.28,11.45,20.12Z" transform="translate(-6.52 -6.5)"/>
  <path d="M428.22,679c6.54-15.17,17.65-33.19,12-50.27-2.89-8.68-9.28-14.47-16-20.21s-13.55-11-20.55-16.15-18.54-1.4-22.38,5.86c-4.5,8.51-1.53,17,5.87,22.38,1.22.89,2.45,1.8,3.65,2.7,3,2.23-1.2-1,1.49,1.14q3.56,2.82,7.06,5.72c2.32,1.94,4.62,3.92,6.86,5.95.95.82,1.84,1.8,2.8,2.64,1.21,1.37,1.17,1.25-.14-.35.74,1.36.82,1.47.35.36s-.45-1,0,.52c-.2-2-.27-2.39-.22-1.14a13,13,0,0,1,0,2c.31-1.91.35-2.26.12-1-.82,2.67-1.56,5.28-2.46,7.92-.45,1.09-.34.84.34-.75l-1,2.22-1.93,4.43L400,662.51c-1.8,4.21-2.92,8-1.63,12.61a16.89,16.89,0,0,0,7.51,9.81c7,3.71,18.81,2.52,22.38-5.87Z" transform="translate(-6.52 -6.5)"/>
  <path d="M132.9,517c2.87,1.07-1.09-.81.46.23.72.51,1.63.86,2.37,1.31,1.76,1.05,3.46,2.2,5.12,3.39s3.32,2.46,5,3.74c1,.76,2,1.52,3,2.27s1.57,1.22.25.19c7.29,5.66,14.48,11.45,21.18,17.82,3.14,3,6.16,6.08,9,9.34,1.36,1.55,2.65,3.12,3.94,4.72-.93-1.16-1-1.37-.08,0,.66.92,1.33,1.85,2,2.79a91,91,0,0,1,6.21,10.52c.4.82.75,1.64,1.17,2.45.92,1.72-.87-2.45.21.46.81,2.14,1.51,4.26,2.15,6.44,2.4,8.18,11.62,14.17,20.12,11.45,8.32-2.69,14-11.33,11.45-20.12-5.82-19.85-18.14-37-33-51.09a303.83,303.83,0,0,0-24-20.05c-8.85-6.84-17.1-13.42-27.73-17.33-8-3-18.28,3.32-20.13,11.45-2.11,9.26,2.83,16.93,11.45,20.12Z" transform="translate(-6.52 -6.5)"/>
  <path d="M212.58,595c40.58,1.93,81.31,3.37,121.54-3.61,20.34-3.52,39.5-10,58.45-18,4.66-2,9.29-4,13.9-6.07l5.56-2.45,4.18-1.81a13,13,0,0,1,1.69-.69c8.5-3.44,17.12-6.49,25.79-9.45,10.41-3.56,20.73-7.29,30.8-11.73a132.19,132.19,0,0,0,13.28-6.72c4.25-2.45,8.13-6.14,12.5-8.28L492,528.38l1-.1-8.24-2.22q-5.06-6.25-3-2.61c.75,1.64.67,1.35-.26-.82.6.74.81,2.24,1.13,3.18a44.3,44.3,0,0,1,1.13,4.36c.16.73.3,1.47.41,2.21l-.29-2.11c.87.47.26,6.81.2,7.89,0,.75-.1,1.51-.17,2.25.37-2.45.41-2.8.13-1-.23,1.1-.42,2.22-.69,3.32-.35,1.46-.77,2.92-1.25,4.34a22.2,22.2,0,0,1-.82,2.13l.82-1.83c0,2-2.71,5.29-3.79,6.91-.41.63-.82,1.24-1.29,1.84,1.43-1.8,1.58-2,.45-.67-.82.82-1.5,1.64-2.3,2.46-.47.45-4.19,3.61-1.42,1.48-1.31,1-2.68,1.9-4.09,2.75a90.11,90.11,0,0,1-8.78,4.56c-1.09.47-.88.38.64-.27l-2.65,1q-2.32.87-4.67,1.69-10.11,3.54-20.44,6.42A335.7,335.7,0,0,1,391,584.5c-8.5,1.2-13.9,12.47-11.45,20.12,3,9.32,11,12.71,20.12,11.45a334.4,334.4,0,0,0,49.45-10.81c16.5-5,33.39-10.56,46.7-21.88,10.9-9.25,18.15-23.39,20.11-37.47a69.28,69.28,0,0,0-.6-24.41c-1.74-8.35-5.61-19.27-13.56-23.44a19,19,0,0,0-19.86,1c-3.18,2.17-6.19,4.51-9.51,6.49-3.09,1.86-6.27,3.55-9.52,5.13-1.63.82-3.27,1.55-4.9,2.27l-1.87.82c3.54-1.52-.7.26-1.13.43-13.9,5.52-28.34,9.69-42.25,15.22-8.61,3.42-17.08,7.16-25.55,10.9-3.48,1.53-6.95,3-10.44,4.54-2.4,1,2.15-.82-.28.12l-2.81,1.15c-2.11.86-4.22,1.67-6.35,2.45a233,233,0,0,1-47.05,12.11l-3,.44c-1.94.3,2.34-.27-.82.11-2.45.29-5,.58-7.44.82q-6.72.68-13.46,1.09c-9,.55-18.07.81-27.12.81-18.64,0-37.26-.81-55.87-1.68-8.57-.4-16.74,7.82-16.36,16.36A16.7,16.7,0,0,0,212.59,595Z" transform="translate(-6.52 -6.5)"/>
</svg>
