<svg xmlns="http://www.w3.org/2000/svg" viewBox="0 0 23.38 24.66">
  <g>
    <path d="M14.4,14.76l-1-.63h0Z" style="fill: #fff"/>
    <path d="M14.4,14.76a100.17,100.17,0,0,1,8.15,5.84A68.9,68.9,0,0,0,14.4,14.76Z" style="fill: #fff"/>
    <path d="M1.22,12.93c1.39.69,2.75,1.41,4.11,2.14A2.52,2.52,0,0,1,6.48,11c.34-.12.69-.22,1-.33L7,10.42c-1,.68-1.91,1.39-2.83,2.13C4,11.27,3.87,10,3.7,8.69,4.82,9.25,5.93,9.83,7,10.42A44.82,44.82,0,0,1,17.33,4.9C20.28,3.81,19-.94,16,.16A54.94,54.94,0,0,0,.72,9.08,2.46,2.46,0,0,0,1.22,12.93Z" style="fill: #fff"/>
    <path d="M7.79,15.75c1.85-.63,3.72-1.16,5.59-1.61-1.64-1-3.31-1.94-5-2.88C8.18,12.76,8,14.25,7.79,15.75Z" style="fill: #fff"/>
    <path d="M5.33,15.07c2.45,1.34,4.85,2.75,7.19,4.28a58.79,58.79,0,0,1,6.56,4.72l3.47-3.47a100.17,100.17,0,0,0-8.15-5.84l-1-.62c-1.87.45-3.74,1-5.59,1.61.19-1.5.39-3,.58-4.49,1.7.94,3.37,1.89,5,2.88h0c-1.93-1.21-3.9-2.35-5.91-3.44-.34.11-.69.21-1,.33A2.52,2.52,0,0,0,5.33,15.07Z" style="fill: #fff"/>
    <path d="M22.55,20.6l-3.47,3.47C21.51,26,25,22.67,22.55,20.6Z" style="fill: #fff"/>
    <path d="M5.89,15.5c2.25,1.24,4.47,2.5,6.63,3.85-2.34-1.53-4.74-2.94-7.19-4.28A2.25,2.25,0,0,0,5.89,15.5Z" style="fill: #fff"/>
    <path d="M4.2,12.55c.92-.74,1.86-1.45,2.83-2.13C5.93,9.83,4.82,9.25,3.7,8.69,3.87,10,4,11.27,4.2,12.55Z" style="fill: #fff"/>
    <path d="M19.08,24.07a58.79,58.79,0,0,0-6.56-4.72Q15.9,21.56,19.08,24.07Z" style="fill: #fff"/>
  </g>
</svg>
